grf
version=1
nRows=9
nColumns=37
inDegrees=no
endheader
time	ground_force_1_vx	ground_force_1_vy	ground_force_1_vz	ground_force_1_px	ground_force_1_py	ground_force_1_pz	ground_moment_1_mx	ground_moment_1_my	ground_moment_1_mz	ground_force_2_vx	ground_force_2_vy	ground_force_2_vz	ground_force_2_px	ground_force_2_py	ground_force_2_pz	ground_moment_2_mx	ground_moment_2_my	ground_moment_2_mz	ground_force_3_vx	ground_force_3_vy	ground_force_3_vz	ground_force_3_px	ground_force_3_py	ground_force_3_pz	ground_moment_3_mx	ground_moment_3_my	ground_moment_3_mz	ground_force_4_vx	ground_force_4_vy	ground_force_4_vz	ground_force_4_px	ground_force_4_py	ground_force_4_pz	ground_moment_4_mx	ground_moment_4_my	ground_moment_4_mz
      4.66000000	      0.00000000	     -0.00000000	      0.00000000	      0.00000000	      0.00000000	      0.00000000	      0.00000000	      0.00000000	      0.00000000	     -4.86214638	      6.41738892	   -305.67794800	   -353.46225186	  -1071.34003966	      0.00000000	      0.00000000	      0.00000000	   3727.03815335	      4.08206084	     -5.12197864	   -267.62606812	   -345.74702437	   -766.03575009	      0.00000000	      0.00000000	     -0.00000000	  -2724.52623115	      0.00000000	     -0.00000000	      0.00000000	      0.00000000	      0.00000000	      0.00000000	      0.00000000	      0.00000000	      0.00000000
      4.67000000	      0.00000000	     -0.00000000	      0.00000000	      0.00000000	      0.00000000	      0.00000000	      0.00000000	      0.00000000	      0.00000000	     -5.70947266	      6.59516907	   -304.61746216	   -354.10431504	  -1072.10404465	      0.00000000	      0.00000000	      0.00000000	   3625.46704351	      3.05983617	     -5.21097973	   -264.65332031	   -345.04490870	   -765.85205783	      0.00000000	      0.00000000	     -0.00000000	  -2624.35785157	      0.00000000	     -0.00000000	      0.00000000	      0.00000000	      0.00000000	      0.00000000	      0.00000000	      0.00000000	      0.00000000
      4.68000000	      0.00000000	     -0.00000000	      0.00000000	      0.00000000	      0.00000000	      0.00000000	      0.00000000	      0.00000000	      0.00000000	     -6.15538788	      7.30841875	   -303.20742798	   -353.37761146	  -1072.33922909	      0.00000000	      0.00000000	      0.00000000	   3741.08982845	      3.28209758	     -5.43148356	   -261.33801270	   -345.57318000	   -766.11051687	      0.00000000	      0.00000000	     -0.00000000	  -2767.28285464	      0.00000000	     -0.00000000	      0.00000000	      0.00000000	      0.00000000	      0.00000000	      0.00000000	      0.00000000	      0.00000000
      4.69000000	      0.00000000	     -0.00000000	      0.00000000	      0.00000000	      0.00000000	      0.00000000	      0.00000000	      0.00000000	      0.00000000	     -7.04792786	      7.57549000	   -300.55731201	   -353.14694565	  -1072.18607949	      0.00000000	      0.00000000	      0.00000000	   3694.60502756	      3.68164327	     -5.21097978	   -256.97558594	   -346.26568176	   -767.17801703	      0.00000000	      0.00000000	     -0.00000000	  -2786.94388578	      0.00000000	     -0.00000000	      0.00000000	      0.00000000	      0.00000000	      0.00000000	      0.00000000	      0.00000000	      0.00000000
      4.70000000	      0.00000000	     -0.00000000	      0.00000000	      0.00000000	      0.00000000	      0.00000000	      0.00000000	      0.00000000	      0.00000000	     -7.04540634	      8.19944191	   -301.08041382	   -354.32455199	  -1072.88760388	      0.00000000	      0.00000000	      0.00000000	   3699.46831745	      3.77010016	     -4.98985419	   -255.75482178	   -345.21678342	   -765.93086761	      0.00000000	      0.00000000	     -0.00000000	  -2735.45994422	      0.00000000	     -0.00000000	      0.00000000	      0.00000000	      0.00000000	      0.00000000	      0.00000000	      0.00000000	      0.00000000
      4.71000000	      0.00000000	     -0.00000000	      0.00000000	      0.00000000	      0.00000000	      0.00000000	      0.00000000	      0.00000000	      0.00000000	     -6.51314926	      8.46816921	   -300.91860962	   -355.51789955	  -1072.68621615	      0.00000000	      0.00000000	      0.00000000	   3783.50313473	      4.52380949	     -4.76937143	   -252.61032104	   -346.54265281	   -767.31989370	      0.00000000	      0.00000000	     -0.00000000	  -2827.71283751	      0.00000000	     -0.00000000	      0.00000000	      0.00000000	      0.00000000	      0.00000000	      0.00000000	      0.00000000	      0.00000000
      4.72000000	      0.00000000	     -0.00000000	      0.00000000	      0.00000000	      0.00000000	      0.00000000	      0.00000000	      0.00000000	      0.00000000	     -5.21829462	      9.13638592	   -301.78198242	   -356.08625846	  -1074.13316652	      0.00000000	      0.00000000	      0.00000000	   3800.10953721	      5.63278594	     -3.79713942	   -248.77737427	   -347.36501422	   -769.86737069	      0.00000000	      0.00000000	     -0.00000000	  -2838.34562546	      0.00000000	     -0.00000000	      0.00000000	      0.00000000	      0.00000000	      0.00000000	      0.00000000	      0.00000000	      0.00000000
      4.73000000	      0.00000000	     -0.00000000	      0.00000000	      0.00000000	      0.00000000	      0.00000000	      0.00000000	      0.00000000	      0.00000000	     -4.86137199	      9.22319508	   -299.67080688	   -357.30020684	  -1072.84256141	      0.00000000	     -0.00000000	      0.00000000	   3659.74271934	      7.05207843	     -3.35366311	   -249.99929810	   -348.44941773	   -767.94395093	      0.00000000	      0.00000000	     -0.00000000	  -2860.42110324	      0.00000000	     -0.00000000	      0.00000000	      0.00000000	      0.00000000	      0.00000000	      0.00000000	      0.00000000	      0.00000000
      4.74000000	      0.00000000	     -0.00000000	      0.00000000	      0.00000000	      0.00000000	      0.00000000	      0.00000000	      0.00000000	      0.00000000	     -4.82028675	      9.76342487	   -297.39486694	   -359.42096586	  -1072.31556552	      0.00000000	      0.00000000	      0.00000000	   3835.46315119	      8.16250584	     -3.04765343	   -249.80262756	   -349.52196465	   -767.32761632	      0.00000000	      0.00000000	     -0.00000000	  -2767.23707648	      0.00000000	     -0.00000000	      0.00000000	      0.00000000	      0.00000000	      0.00000000	      0.00000000	      0.00000000	      0.00000000
